<mxfile host="app.diagrams.net" modified="2023-12-15T17:20:47.815Z" agent="Mozilla/5.0 (Windows NT 10.0; Win64; x64) AppleWebKit/537.36 (KHTML, like Gecko) Chrome/120.0.0.0 Safari/537.36" etag="4gKZUpHl5SdZOSaLqP7C" version="22.1.9" type="github">
  <diagram name="Page-1" id="GB_4OeYxDUM6NTlbFD8Y">
    <mxGraphModel dx="3425" dy="2288" grid="1" gridSize="10" guides="1" tooltips="1" connect="1" arrows="1" fold="1" page="1" pageScale="1" pageWidth="850" pageHeight="1100" math="0" shadow="0">
      <root>
        <mxCell id="0" />
        <mxCell id="1" parent="0" />
        <mxCell id="6We_kyT9qWEWSvFF-9-q-4" value="&lt;font style=&quot;font-size: 14px;&quot;&gt;Balança&lt;/font&gt;" style="swimlane;fontStyle=1;align=center;verticalAlign=top;childLayout=stackLayout;horizontal=1;startSize=26;horizontalStack=0;resizeParent=1;resizeParentMax=0;resizeLast=0;collapsible=1;marginBottom=0;whiteSpace=wrap;html=1;" parent="1" vertex="1">
          <mxGeometry x="-60" y="10" width="190" height="112" as="geometry" />
        </mxCell>
        <mxCell id="6We_kyT9qWEWSvFF-9-q-6" value="" style="line;strokeWidth=1;fillColor=none;align=left;verticalAlign=middle;spacingTop=-1;spacingLeft=3;spacingRight=3;rotatable=0;labelPosition=right;points=[];portConstraint=eastwest;strokeColor=inherit;" parent="6We_kyT9qWEWSvFF-9-q-4" vertex="1">
          <mxGeometry y="26" width="190" height="8" as="geometry" />
        </mxCell>
        <mxCell id="q4IPxEvm5e1y_BdzbNts-47" value="&lt;span style=&quot;font-style: normal;&quot;&gt;&lt;font style=&quot;font-size: 14px;&quot;&gt;+ inicializar(): void&lt;/font&gt;&lt;/span&gt;" style="text;strokeColor=none;fillColor=none;align=left;verticalAlign=top;spacingLeft=4;spacingRight=4;overflow=hidden;rotatable=0;points=[[0,0.5],[1,0.5]];portConstraint=eastwest;whiteSpace=wrap;html=1;fontStyle=2" parent="6We_kyT9qWEWSvFF-9-q-4" vertex="1">
          <mxGeometry y="34" width="190" height="26" as="geometry" />
        </mxCell>
        <mxCell id="q4IPxEvm5e1y_BdzbNts-49" value="&lt;span style=&quot;font-style: normal;&quot;&gt;&lt;font style=&quot;font-size: 14px;&quot;&gt;+ finalizar(): void&lt;/font&gt;&lt;/span&gt;" style="text;strokeColor=none;fillColor=none;align=left;verticalAlign=top;spacingLeft=4;spacingRight=4;overflow=hidden;rotatable=0;points=[[0,0.5],[1,0.5]];portConstraint=eastwest;whiteSpace=wrap;html=1;fontStyle=2" parent="6We_kyT9qWEWSvFF-9-q-4" vertex="1">
          <mxGeometry y="60" width="190" height="26" as="geometry" />
        </mxCell>
        <mxCell id="q4IPxEvm5e1y_BdzbNts-48" value="&lt;span style=&quot;font-style: normal;&quot;&gt;&lt;font style=&quot;font-size: 14px;&quot;&gt;+ coletarDados(): void&lt;/font&gt;&lt;/span&gt;" style="text;strokeColor=none;fillColor=none;align=left;verticalAlign=top;spacingLeft=4;spacingRight=4;overflow=hidden;rotatable=0;points=[[0,0.5],[1,0.5]];portConstraint=eastwest;whiteSpace=wrap;html=1;fontStyle=2" parent="6We_kyT9qWEWSvFF-9-q-4" vertex="1">
          <mxGeometry y="86" width="190" height="26" as="geometry" />
        </mxCell>
        <mxCell id="6We_kyT9qWEWSvFF-9-q-8" value="&lt;font style=&quot;font-size: 14px;&quot;&gt;CâmeraDeVideo&lt;/font&gt;" style="swimlane;fontStyle=1;align=center;verticalAlign=top;childLayout=stackLayout;horizontal=1;startSize=26;horizontalStack=0;resizeParent=1;resizeParentMax=0;resizeLast=0;collapsible=1;marginBottom=0;whiteSpace=wrap;html=1;" parent="1" vertex="1">
          <mxGeometry x="160" y="10" width="195" height="112" as="geometry">
            <mxRectangle x="160" y="10" width="150" height="30" as="alternateBounds" />
          </mxGeometry>
        </mxCell>
        <mxCell id="6We_kyT9qWEWSvFF-9-q-10" value="" style="line;strokeWidth=1;fillColor=none;align=left;verticalAlign=middle;spacingTop=-1;spacingLeft=3;spacingRight=3;rotatable=0;labelPosition=right;points=[];portConstraint=eastwest;strokeColor=inherit;" parent="6We_kyT9qWEWSvFF-9-q-8" vertex="1">
          <mxGeometry y="26" width="195" height="8" as="geometry" />
        </mxCell>
        <mxCell id="q4IPxEvm5e1y_BdzbNts-50" value="&lt;span style=&quot;font-style: normal;&quot;&gt;&lt;font style=&quot;font-size: 14px;&quot;&gt;+ inicializar(): void&lt;/font&gt;&lt;/span&gt;" style="text;strokeColor=none;fillColor=none;align=left;verticalAlign=top;spacingLeft=4;spacingRight=4;overflow=hidden;rotatable=0;points=[[0,0.5],[1,0.5]];portConstraint=eastwest;whiteSpace=wrap;html=1;fontStyle=2" parent="6We_kyT9qWEWSvFF-9-q-8" vertex="1">
          <mxGeometry y="34" width="195" height="26" as="geometry" />
        </mxCell>
        <mxCell id="q4IPxEvm5e1y_BdzbNts-52" value="&lt;span style=&quot;font-style: normal;&quot;&gt;&lt;font style=&quot;font-size: 14px;&quot;&gt;+ coletarDados(): void&lt;/font&gt;&lt;/span&gt;" style="text;strokeColor=none;fillColor=none;align=left;verticalAlign=top;spacingLeft=4;spacingRight=4;overflow=hidden;rotatable=0;points=[[0,0.5],[1,0.5]];portConstraint=eastwest;whiteSpace=wrap;html=1;fontStyle=2" parent="6We_kyT9qWEWSvFF-9-q-8" vertex="1">
          <mxGeometry y="60" width="195" height="26" as="geometry" />
        </mxCell>
        <mxCell id="q4IPxEvm5e1y_BdzbNts-51" value="&lt;span style=&quot;font-style: normal;&quot;&gt;&lt;font style=&quot;font-size: 14px;&quot;&gt;+ finalizar(): void&lt;/font&gt;&lt;/span&gt;" style="text;strokeColor=none;fillColor=none;align=left;verticalAlign=top;spacingLeft=4;spacingRight=4;overflow=hidden;rotatable=0;points=[[0,0.5],[1,0.5]];portConstraint=eastwest;whiteSpace=wrap;html=1;fontStyle=2" parent="6We_kyT9qWEWSvFF-9-q-8" vertex="1">
          <mxGeometry y="86" width="195" height="26" as="geometry" />
        </mxCell>
        <mxCell id="6We_kyT9qWEWSvFF-9-q-12" value="&lt;font style=&quot;font-size: 14px;&quot;&gt;MáquinaFotográfica&lt;/font&gt;" style="swimlane;fontStyle=1;align=center;verticalAlign=top;childLayout=stackLayout;horizontal=1;startSize=26;horizontalStack=0;resizeParent=1;resizeParentMax=0;resizeLast=0;collapsible=1;marginBottom=0;whiteSpace=wrap;html=1;" parent="1" vertex="1">
          <mxGeometry x="380" y="10" width="160" height="112" as="geometry" />
        </mxCell>
        <mxCell id="6We_kyT9qWEWSvFF-9-q-14" value="" style="line;strokeWidth=1;fillColor=none;align=left;verticalAlign=middle;spacingTop=-1;spacingLeft=3;spacingRight=3;rotatable=0;labelPosition=right;points=[];portConstraint=eastwest;strokeColor=inherit;" parent="6We_kyT9qWEWSvFF-9-q-12" vertex="1">
          <mxGeometry y="26" width="160" height="8" as="geometry" />
        </mxCell>
        <mxCell id="q4IPxEvm5e1y_BdzbNts-53" value="&lt;span style=&quot;font-style: normal;&quot;&gt;&lt;font style=&quot;font-size: 14px;&quot;&gt;+ inicializar(): void&lt;/font&gt;&lt;/span&gt;" style="text;strokeColor=none;fillColor=none;align=left;verticalAlign=top;spacingLeft=4;spacingRight=4;overflow=hidden;rotatable=0;points=[[0,0.5],[1,0.5]];portConstraint=eastwest;whiteSpace=wrap;html=1;fontStyle=2" parent="6We_kyT9qWEWSvFF-9-q-12" vertex="1">
          <mxGeometry y="34" width="160" height="26" as="geometry" />
        </mxCell>
        <mxCell id="q4IPxEvm5e1y_BdzbNts-55" value="&lt;span style=&quot;font-style: normal;&quot;&gt;&lt;font style=&quot;font-size: 14px;&quot;&gt;+ coletarDados(): void&lt;/font&gt;&lt;/span&gt;" style="text;strokeColor=none;fillColor=none;align=left;verticalAlign=top;spacingLeft=4;spacingRight=4;overflow=hidden;rotatable=0;points=[[0,0.5],[1,0.5]];portConstraint=eastwest;whiteSpace=wrap;html=1;fontStyle=2" parent="6We_kyT9qWEWSvFF-9-q-12" vertex="1">
          <mxGeometry y="60" width="160" height="26" as="geometry" />
        </mxCell>
        <mxCell id="q4IPxEvm5e1y_BdzbNts-54" value="&lt;span style=&quot;font-style: normal;&quot;&gt;&lt;font style=&quot;font-size: 14px;&quot;&gt;+ finalizar(): void&lt;/font&gt;&lt;/span&gt;" style="text;strokeColor=none;fillColor=none;align=left;verticalAlign=top;spacingLeft=4;spacingRight=4;overflow=hidden;rotatable=0;points=[[0,0.5],[1,0.5]];portConstraint=eastwest;whiteSpace=wrap;html=1;fontStyle=2" parent="6We_kyT9qWEWSvFF-9-q-12" vertex="1">
          <mxGeometry y="86" width="160" height="26" as="geometry" />
        </mxCell>
        <mxCell id="6We_kyT9qWEWSvFF-9-q-16" value="&lt;font style=&quot;font-size: 14px;&quot;&gt;RaioX&lt;/font&gt;" style="swimlane;fontStyle=1;align=center;verticalAlign=top;childLayout=stackLayout;horizontal=1;startSize=26;horizontalStack=0;resizeParent=1;resizeParentMax=0;resizeLast=0;collapsible=1;marginBottom=0;whiteSpace=wrap;html=1;" parent="1" vertex="1">
          <mxGeometry x="565" y="10" width="160" height="112" as="geometry" />
        </mxCell>
        <mxCell id="6We_kyT9qWEWSvFF-9-q-18" value="" style="line;strokeWidth=1;fillColor=none;align=left;verticalAlign=middle;spacingTop=-1;spacingLeft=3;spacingRight=3;rotatable=0;labelPosition=right;points=[];portConstraint=eastwest;strokeColor=inherit;" parent="6We_kyT9qWEWSvFF-9-q-16" vertex="1">
          <mxGeometry y="26" width="160" height="8" as="geometry" />
        </mxCell>
        <mxCell id="q4IPxEvm5e1y_BdzbNts-59" value="&lt;span style=&quot;font-style: normal;&quot;&gt;&lt;font style=&quot;font-size: 14px;&quot;&gt;+ inicializar(): void&lt;/font&gt;&lt;/span&gt;" style="text;strokeColor=none;fillColor=none;align=left;verticalAlign=top;spacingLeft=4;spacingRight=4;overflow=hidden;rotatable=0;points=[[0,0.5],[1,0.5]];portConstraint=eastwest;whiteSpace=wrap;html=1;fontStyle=2" parent="6We_kyT9qWEWSvFF-9-q-16" vertex="1">
          <mxGeometry y="34" width="160" height="26" as="geometry" />
        </mxCell>
        <mxCell id="q4IPxEvm5e1y_BdzbNts-61" value="&lt;span style=&quot;font-style: normal;&quot;&gt;&lt;font style=&quot;font-size: 14px;&quot;&gt;+ coletarDados(): void&lt;/font&gt;&lt;/span&gt;" style="text;strokeColor=none;fillColor=none;align=left;verticalAlign=top;spacingLeft=4;spacingRight=4;overflow=hidden;rotatable=0;points=[[0,0.5],[1,0.5]];portConstraint=eastwest;whiteSpace=wrap;html=1;fontStyle=2" parent="6We_kyT9qWEWSvFF-9-q-16" vertex="1">
          <mxGeometry y="60" width="160" height="26" as="geometry" />
        </mxCell>
        <mxCell id="q4IPxEvm5e1y_BdzbNts-60" value="&lt;span style=&quot;font-style: normal;&quot;&gt;&lt;font style=&quot;font-size: 14px;&quot;&gt;+ finalizar(): void&lt;/font&gt;&lt;/span&gt;" style="text;strokeColor=none;fillColor=none;align=left;verticalAlign=top;spacingLeft=4;spacingRight=4;overflow=hidden;rotatable=0;points=[[0,0.5],[1,0.5]];portConstraint=eastwest;whiteSpace=wrap;html=1;fontStyle=2" parent="6We_kyT9qWEWSvFF-9-q-16" vertex="1">
          <mxGeometry y="86" width="160" height="26" as="geometry" />
        </mxCell>
        <mxCell id="6We_kyT9qWEWSvFF-9-q-20" value="&lt;font style=&quot;font-size: 14px;&quot;&gt;ControladorFrutas&lt;/font&gt;" style="swimlane;fontStyle=1;align=center;verticalAlign=top;childLayout=stackLayout;horizontal=1;startSize=26;horizontalStack=0;resizeParent=1;resizeParentMax=0;resizeLast=0;collapsible=1;marginBottom=0;whiteSpace=wrap;html=1;" parent="1" vertex="1">
          <mxGeometry x="1090" y="310" width="280" height="190" as="geometry" />
        </mxCell>
        <mxCell id="q4IPxEvm5e1y_BdzbNts-28" value="&lt;font style=&quot;font-size: 14px;&quot;&gt;- tipoProduto: String&lt;/font&gt;" style="text;strokeColor=none;fillColor=none;align=left;verticalAlign=top;spacingLeft=4;spacingRight=4;overflow=hidden;rotatable=0;points=[[0,0.5],[1,0.5]];portConstraint=eastwest;whiteSpace=wrap;html=1;" parent="6We_kyT9qWEWSvFF-9-q-20" vertex="1">
          <mxGeometry y="26" width="280" height="26" as="geometry" />
        </mxCell>
        <mxCell id="6We_kyT9qWEWSvFF-9-q-22" value="" style="line;strokeWidth=1;fillColor=none;align=left;verticalAlign=middle;spacingTop=-1;spacingLeft=3;spacingRight=3;rotatable=0;labelPosition=right;points=[];portConstraint=eastwest;strokeColor=inherit;" parent="6We_kyT9qWEWSvFF-9-q-20" vertex="1">
          <mxGeometry y="52" width="280" height="8" as="geometry" />
        </mxCell>
        <mxCell id="q4IPxEvm5e1y_BdzbNts-82" value="&lt;font style=&quot;font-size: 14px;&quot;&gt;+ definirEstrategiaDeControle(estrategia)&lt;/font&gt;" style="text;strokeColor=none;fillColor=none;align=left;verticalAlign=top;spacingLeft=4;spacingRight=4;overflow=hidden;rotatable=0;points=[[0,0.5],[1,0.5]];portConstraint=eastwest;whiteSpace=wrap;html=1;" parent="6We_kyT9qWEWSvFF-9-q-20" vertex="1">
          <mxGeometry y="60" width="280" height="26" as="geometry" />
        </mxCell>
        <mxCell id="q4IPxEvm5e1y_BdzbNts-81" value="&lt;font style=&quot;font-size: 14px;&quot;&gt;+ adicionarSensor(Sensor): void&lt;/font&gt;" style="text;strokeColor=none;fillColor=none;align=left;verticalAlign=top;spacingLeft=4;spacingRight=4;overflow=hidden;rotatable=0;points=[[0,0.5],[1,0.5]];portConstraint=eastwest;whiteSpace=wrap;html=1;" parent="6We_kyT9qWEWSvFF-9-q-20" vertex="1">
          <mxGeometry y="86" width="280" height="26" as="geometry" />
        </mxCell>
        <mxCell id="q4IPxEvm5e1y_BdzbNts-80" value="&lt;font style=&quot;font-size: 14px;&quot;&gt;+ definirRegras(RegraDeQualidade): void&lt;/font&gt;" style="text;strokeColor=none;fillColor=none;align=left;verticalAlign=top;spacingLeft=4;spacingRight=4;overflow=hidden;rotatable=0;points=[[0,0.5],[1,0.5]];portConstraint=eastwest;whiteSpace=wrap;html=1;" parent="6We_kyT9qWEWSvFF-9-q-20" vertex="1">
          <mxGeometry y="112" width="280" height="26" as="geometry" />
        </mxCell>
        <mxCell id="q4IPxEvm5e1y_BdzbNts-79" value="&lt;font style=&quot;font-size: 14px;&quot;&gt;+ processarDados(): void&lt;/font&gt;" style="text;strokeColor=none;fillColor=none;align=left;verticalAlign=top;spacingLeft=4;spacingRight=4;overflow=hidden;rotatable=0;points=[[0,0.5],[1,0.5]];portConstraint=eastwest;whiteSpace=wrap;html=1;" parent="6We_kyT9qWEWSvFF-9-q-20" vertex="1">
          <mxGeometry y="138" width="280" height="26" as="geometry" />
        </mxCell>
        <mxCell id="q4IPxEvm5e1y_BdzbNts-78" value="&lt;font style=&quot;font-size: 14px;&quot;&gt;+ emitirRelatorio(): void&lt;/font&gt;" style="text;strokeColor=none;fillColor=none;align=left;verticalAlign=top;spacingLeft=4;spacingRight=4;overflow=hidden;rotatable=0;points=[[0,0.5],[1,0.5]];portConstraint=eastwest;whiteSpace=wrap;html=1;" parent="6We_kyT9qWEWSvFF-9-q-20" vertex="1">
          <mxGeometry y="164" width="280" height="26" as="geometry" />
        </mxCell>
        <mxCell id="q4IPxEvm5e1y_BdzbNts-1" value="&lt;i&gt;&lt;font style=&quot;font-size: 14px;&quot;&gt;ControladorProduto&lt;/font&gt;&lt;/i&gt;" style="swimlane;fontStyle=1;align=center;verticalAlign=top;childLayout=stackLayout;horizontal=1;startSize=26;horizontalStack=0;resizeParent=1;resizeParentMax=0;resizeLast=0;collapsible=1;marginBottom=0;whiteSpace=wrap;html=1;" parent="1" vertex="1">
          <mxGeometry x="1100" y="20" width="270" height="190" as="geometry" />
        </mxCell>
        <mxCell id="q4IPxEvm5e1y_BdzbNts-77" value="&lt;i&gt;&lt;font style=&quot;font-size: 14px;&quot;&gt;- tipoProduto: String&lt;/font&gt;&lt;/i&gt;" style="text;strokeColor=none;fillColor=none;align=left;verticalAlign=top;spacingLeft=4;spacingRight=4;overflow=hidden;rotatable=0;points=[[0,0.5],[1,0.5]];portConstraint=eastwest;whiteSpace=wrap;html=1;" parent="q4IPxEvm5e1y_BdzbNts-1" vertex="1">
          <mxGeometry y="26" width="270" height="26" as="geometry" />
        </mxCell>
        <mxCell id="q4IPxEvm5e1y_BdzbNts-3" value="" style="line;strokeWidth=1;fillColor=none;align=left;verticalAlign=middle;spacingTop=-1;spacingLeft=3;spacingRight=3;rotatable=0;labelPosition=right;points=[];portConstraint=eastwest;strokeColor=inherit;" parent="q4IPxEvm5e1y_BdzbNts-1" vertex="1">
          <mxGeometry y="52" width="270" height="8" as="geometry" />
        </mxCell>
        <mxCell id="q4IPxEvm5e1y_BdzbNts-76" value="&lt;i&gt;&lt;font style=&quot;font-size: 14px;&quot;&gt;+ emitirRelatorio(): void&lt;/font&gt;&lt;/i&gt;" style="text;strokeColor=none;fillColor=none;align=left;verticalAlign=top;spacingLeft=4;spacingRight=4;overflow=hidden;rotatable=0;points=[[0,0.5],[1,0.5]];portConstraint=eastwest;whiteSpace=wrap;html=1;" parent="q4IPxEvm5e1y_BdzbNts-1" vertex="1">
          <mxGeometry y="60" width="270" height="26" as="geometry" />
        </mxCell>
        <mxCell id="q4IPxEvm5e1y_BdzbNts-75" value="&lt;i&gt;&lt;font style=&quot;font-size: 14px;&quot;&gt;+ processarDados(): void&lt;/font&gt;&lt;/i&gt;" style="text;strokeColor=none;fillColor=none;align=left;verticalAlign=top;spacingLeft=4;spacingRight=4;overflow=hidden;rotatable=0;points=[[0,0.5],[1,0.5]];portConstraint=eastwest;whiteSpace=wrap;html=1;" parent="q4IPxEvm5e1y_BdzbNts-1" vertex="1">
          <mxGeometry y="86" width="270" height="26" as="geometry" />
        </mxCell>
        <mxCell id="q4IPxEvm5e1y_BdzbNts-74" value="&lt;i&gt;&lt;font style=&quot;font-size: 14px;&quot;&gt;+ definirRegras(RegraDeQualidade): void&lt;/font&gt;&lt;/i&gt;" style="text;strokeColor=none;fillColor=none;align=left;verticalAlign=top;spacingLeft=4;spacingRight=4;overflow=hidden;rotatable=0;points=[[0,0.5],[1,0.5]];portConstraint=eastwest;whiteSpace=wrap;html=1;" parent="q4IPxEvm5e1y_BdzbNts-1" vertex="1">
          <mxGeometry y="112" width="270" height="26" as="geometry" />
        </mxCell>
        <mxCell id="q4IPxEvm5e1y_BdzbNts-73" value="&lt;i&gt;&lt;font style=&quot;font-size: 14px;&quot;&gt;+ adicionarSensor(Sensor): void&lt;/font&gt;&lt;/i&gt;" style="text;strokeColor=none;fillColor=none;align=left;verticalAlign=top;spacingLeft=4;spacingRight=4;overflow=hidden;rotatable=0;points=[[0,0.5],[1,0.5]];portConstraint=eastwest;whiteSpace=wrap;html=1;" parent="q4IPxEvm5e1y_BdzbNts-1" vertex="1">
          <mxGeometry y="138" width="270" height="26" as="geometry" />
        </mxCell>
        <mxCell id="q4IPxEvm5e1y_BdzbNts-4" value="&lt;i&gt;&lt;font style=&quot;font-size: 14px;&quot;&gt;+ definirEstrategiaDeControle(estrategia)&lt;/font&gt;&lt;/i&gt;" style="text;strokeColor=none;fillColor=none;align=left;verticalAlign=top;spacingLeft=4;spacingRight=4;overflow=hidden;rotatable=0;points=[[0,0.5],[1,0.5]];portConstraint=eastwest;whiteSpace=wrap;html=1;" parent="q4IPxEvm5e1y_BdzbNts-1" vertex="1">
          <mxGeometry y="164" width="270" height="26" as="geometry" />
        </mxCell>
        <mxCell id="q4IPxEvm5e1y_BdzbNts-5" value="&lt;font style=&quot;font-size: 14px;&quot;&gt;BancoDeDados&lt;/font&gt;" style="swimlane;fontStyle=1;align=center;verticalAlign=top;childLayout=stackLayout;horizontal=1;startSize=26;horizontalStack=0;resizeParent=1;resizeParentMax=0;resizeLast=0;collapsible=1;marginBottom=0;whiteSpace=wrap;html=1;" parent="1" vertex="1">
          <mxGeometry x="1137.5" y="650" width="195" height="138" as="geometry" />
        </mxCell>
        <mxCell id="q4IPxEvm5e1y_BdzbNts-7" value="" style="line;strokeWidth=1;fillColor=none;align=left;verticalAlign=middle;spacingTop=-1;spacingLeft=3;spacingRight=3;rotatable=0;labelPosition=right;points=[];portConstraint=eastwest;strokeColor=inherit;" parent="q4IPxEvm5e1y_BdzbNts-5" vertex="1">
          <mxGeometry y="26" width="195" height="8" as="geometry" />
        </mxCell>
        <mxCell id="q4IPxEvm5e1y_BdzbNts-8" value="&lt;font style=&quot;font-size: 14px;&quot;&gt;+ armazenarDados(dados)&lt;/font&gt;" style="text;strokeColor=none;fillColor=none;align=left;verticalAlign=top;spacingLeft=4;spacingRight=4;overflow=hidden;rotatable=0;points=[[0,0.5],[1,0.5]];portConstraint=eastwest;whiteSpace=wrap;html=1;" parent="q4IPxEvm5e1y_BdzbNts-5" vertex="1">
          <mxGeometry y="34" width="195" height="26" as="geometry" />
        </mxCell>
        <mxCell id="q4IPxEvm5e1y_BdzbNts-117" value="&lt;font style=&quot;font-size: 14px;&quot;&gt;+ atualizarDados(dados)&lt;/font&gt;" style="text;strokeColor=none;fillColor=none;align=left;verticalAlign=top;spacingLeft=4;spacingRight=4;overflow=hidden;rotatable=0;points=[[0,0.5],[1,0.5]];portConstraint=eastwest;whiteSpace=wrap;html=1;" parent="q4IPxEvm5e1y_BdzbNts-5" vertex="1">
          <mxGeometry y="60" width="195" height="26" as="geometry" />
        </mxCell>
        <mxCell id="q4IPxEvm5e1y_BdzbNts-115" value="&lt;font style=&quot;font-size: 14px;&quot;&gt;+ recuperarDados()&lt;/font&gt;" style="text;strokeColor=none;fillColor=none;align=left;verticalAlign=top;spacingLeft=4;spacingRight=4;overflow=hidden;rotatable=0;points=[[0,0.5],[1,0.5]];portConstraint=eastwest;whiteSpace=wrap;html=1;" parent="q4IPxEvm5e1y_BdzbNts-5" vertex="1">
          <mxGeometry y="86" width="195" height="26" as="geometry" />
        </mxCell>
        <mxCell id="q4IPxEvm5e1y_BdzbNts-118" value="&lt;font style=&quot;font-size: 14px;&quot;&gt;+ excluirDados()&lt;/font&gt;" style="text;strokeColor=none;fillColor=none;align=left;verticalAlign=top;spacingLeft=4;spacingRight=4;overflow=hidden;rotatable=0;points=[[0,0.5],[1,0.5]];portConstraint=eastwest;whiteSpace=wrap;html=1;" parent="q4IPxEvm5e1y_BdzbNts-5" vertex="1">
          <mxGeometry y="112" width="195" height="26" as="geometry" />
        </mxCell>
        <mxCell id="q4IPxEvm5e1y_BdzbNts-37" value="&lt;font style=&quot;font-size: 14px;&quot;&gt;InterfaceUsuário&lt;/font&gt;" style="swimlane;fontStyle=1;align=center;verticalAlign=top;childLayout=stackLayout;horizontal=1;startSize=26;horizontalStack=0;resizeParent=1;resizeParentMax=0;resizeLast=0;collapsible=1;marginBottom=0;whiteSpace=wrap;html=1;" parent="1" vertex="1">
          <mxGeometry x="1493" y="650" width="235" height="138" as="geometry" />
        </mxCell>
        <mxCell id="q4IPxEvm5e1y_BdzbNts-39" value="" style="line;strokeWidth=1;fillColor=none;align=left;verticalAlign=middle;spacingTop=-1;spacingLeft=3;spacingRight=3;rotatable=0;labelPosition=right;points=[];portConstraint=eastwest;strokeColor=inherit;" parent="q4IPxEvm5e1y_BdzbNts-37" vertex="1">
          <mxGeometry y="26" width="235" height="8" as="geometry" />
        </mxCell>
        <mxCell id="q4IPxEvm5e1y_BdzbNts-40" value="&lt;font style=&quot;font-size: 14px;&quot;&gt;+ exibirResultado(resultados)&lt;/font&gt;" style="text;strokeColor=none;fillColor=none;align=left;verticalAlign=top;spacingLeft=4;spacingRight=4;overflow=hidden;rotatable=0;points=[[0,0.5],[1,0.5]];portConstraint=eastwest;whiteSpace=wrap;html=1;" parent="q4IPxEvm5e1y_BdzbNts-37" vertex="1">
          <mxGeometry y="34" width="235" height="26" as="geometry" />
        </mxCell>
        <mxCell id="q4IPxEvm5e1y_BdzbNts-116" value="&lt;font style=&quot;font-size: 14px;&quot;&gt;+ configurarSistema(configurações)&lt;/font&gt;" style="text;strokeColor=none;fillColor=none;align=left;verticalAlign=top;spacingLeft=4;spacingRight=4;overflow=hidden;rotatable=0;points=[[0,0.5],[1,0.5]];portConstraint=eastwest;whiteSpace=wrap;html=1;" parent="q4IPxEvm5e1y_BdzbNts-37" vertex="1">
          <mxGeometry y="60" width="235" height="26" as="geometry" />
        </mxCell>
        <mxCell id="q4IPxEvm5e1y_BdzbNts-119" value="&lt;font style=&quot;font-size: 14px;&quot;&gt;+ mostrarHistórico(dados)&lt;/font&gt;" style="text;strokeColor=none;fillColor=none;align=left;verticalAlign=top;spacingLeft=4;spacingRight=4;overflow=hidden;rotatable=0;points=[[0,0.5],[1,0.5]];portConstraint=eastwest;whiteSpace=wrap;html=1;" parent="q4IPxEvm5e1y_BdzbNts-37" vertex="1">
          <mxGeometry y="86" width="235" height="26" as="geometry" />
        </mxCell>
        <mxCell id="q4IPxEvm5e1y_BdzbNts-120" value="&lt;font style=&quot;font-size: 14px;&quot;&gt;+ receberEntradasUsuario()&lt;/font&gt;" style="text;strokeColor=none;fillColor=none;align=left;verticalAlign=top;spacingLeft=4;spacingRight=4;overflow=hidden;rotatable=0;points=[[0,0.5],[1,0.5]];portConstraint=eastwest;whiteSpace=wrap;html=1;" parent="q4IPxEvm5e1y_BdzbNts-37" vertex="1">
          <mxGeometry y="112" width="235" height="26" as="geometry" />
        </mxCell>
        <mxCell id="q4IPxEvm5e1y_BdzbNts-41" value="&lt;i&gt;&lt;font style=&quot;font-size: 14px;&quot;&gt;Sensor&lt;/font&gt;&lt;/i&gt;" style="swimlane;fontStyle=1;align=center;verticalAlign=top;childLayout=stackLayout;horizontal=1;startSize=26;horizontalStack=0;resizeParent=1;resizeParentMax=0;resizeLast=0;collapsible=1;marginBottom=0;whiteSpace=wrap;html=1;" parent="1" vertex="1">
          <mxGeometry x="240" y="-180" width="170" height="112" as="geometry" />
        </mxCell>
        <mxCell id="q4IPxEvm5e1y_BdzbNts-43" value="" style="line;strokeWidth=1;fillColor=none;align=left;verticalAlign=middle;spacingTop=-1;spacingLeft=3;spacingRight=3;rotatable=0;labelPosition=right;points=[];portConstraint=eastwest;strokeColor=inherit;" parent="q4IPxEvm5e1y_BdzbNts-41" vertex="1">
          <mxGeometry y="26" width="170" height="8" as="geometry" />
        </mxCell>
        <mxCell id="q4IPxEvm5e1y_BdzbNts-44" value="&lt;i&gt;&lt;font style=&quot;font-size: 14px;&quot;&gt;+ inicializar(): void&lt;/font&gt;&lt;/i&gt;" style="text;strokeColor=none;fillColor=none;align=left;verticalAlign=top;spacingLeft=4;spacingRight=4;overflow=hidden;rotatable=0;points=[[0,0.5],[1,0.5]];portConstraint=eastwest;whiteSpace=wrap;html=1;" parent="q4IPxEvm5e1y_BdzbNts-41" vertex="1">
          <mxGeometry y="34" width="170" height="26" as="geometry" />
        </mxCell>
        <mxCell id="q4IPxEvm5e1y_BdzbNts-45" value="&lt;i&gt;&lt;font style=&quot;font-size: 14px;&quot;&gt;+ coletarDados(): void&lt;/font&gt;&lt;/i&gt;" style="text;strokeColor=none;fillColor=none;align=left;verticalAlign=top;spacingLeft=4;spacingRight=4;overflow=hidden;rotatable=0;points=[[0,0.5],[1,0.5]];portConstraint=eastwest;whiteSpace=wrap;html=1;" parent="q4IPxEvm5e1y_BdzbNts-41" vertex="1">
          <mxGeometry y="60" width="170" height="26" as="geometry" />
        </mxCell>
        <mxCell id="q4IPxEvm5e1y_BdzbNts-46" value="&lt;i&gt;&lt;font style=&quot;font-size: 14px;&quot;&gt;+ finalizar(): void&lt;/font&gt;&lt;/i&gt;" style="text;strokeColor=none;fillColor=none;align=left;verticalAlign=top;spacingLeft=4;spacingRight=4;overflow=hidden;rotatable=0;points=[[0,0.5],[1,0.5]];portConstraint=eastwest;whiteSpace=wrap;html=1;" parent="q4IPxEvm5e1y_BdzbNts-41" vertex="1">
          <mxGeometry y="86" width="170" height="26" as="geometry" />
        </mxCell>
        <mxCell id="q4IPxEvm5e1y_BdzbNts-62" value="&lt;i&gt;&lt;font style=&quot;font-size: 14px;&quot;&gt;ControladorDeQualidade&lt;/font&gt;&lt;/i&gt;" style="swimlane;fontStyle=1;align=center;verticalAlign=top;childLayout=stackLayout;horizontal=1;startSize=26;horizontalStack=0;resizeParent=1;resizeParentMax=0;resizeLast=0;collapsible=1;marginBottom=0;whiteSpace=wrap;html=1;" parent="1" vertex="1">
          <mxGeometry x="1095" y="-180" width="275" height="138" as="geometry" />
        </mxCell>
        <mxCell id="q4IPxEvm5e1y_BdzbNts-64" value="" style="line;strokeWidth=1;fillColor=none;align=left;verticalAlign=middle;spacingTop=-1;spacingLeft=3;spacingRight=3;rotatable=0;labelPosition=right;points=[];portConstraint=eastwest;strokeColor=inherit;" parent="q4IPxEvm5e1y_BdzbNts-62" vertex="1">
          <mxGeometry y="26" width="275" height="8" as="geometry" />
        </mxCell>
        <mxCell id="q4IPxEvm5e1y_BdzbNts-65" value="&lt;i&gt;&lt;font style=&quot;font-size: 14px;&quot;&gt;+ adicionarSensor(Sensor): void&lt;/font&gt;&lt;/i&gt;" style="text;strokeColor=none;fillColor=none;align=left;verticalAlign=top;spacingLeft=4;spacingRight=4;overflow=hidden;rotatable=0;points=[[0,0.5],[1,0.5]];portConstraint=eastwest;whiteSpace=wrap;html=1;" parent="q4IPxEvm5e1y_BdzbNts-62" vertex="1">
          <mxGeometry y="34" width="275" height="26" as="geometry" />
        </mxCell>
        <mxCell id="q4IPxEvm5e1y_BdzbNts-66" value="&lt;i&gt;&lt;font style=&quot;font-size: 14px;&quot;&gt;+ definirRegras(RegraDeQualidade): void&lt;/font&gt;&lt;/i&gt;" style="text;strokeColor=none;fillColor=none;align=left;verticalAlign=top;spacingLeft=4;spacingRight=4;overflow=hidden;rotatable=0;points=[[0,0.5],[1,0.5]];portConstraint=eastwest;whiteSpace=wrap;html=1;" parent="q4IPxEvm5e1y_BdzbNts-62" vertex="1">
          <mxGeometry y="60" width="275" height="26" as="geometry" />
        </mxCell>
        <mxCell id="q4IPxEvm5e1y_BdzbNts-67" value="&lt;i&gt;&lt;font style=&quot;font-size: 14px;&quot;&gt;+ processarDados(): void&lt;/font&gt;&lt;/i&gt;" style="text;strokeColor=none;fillColor=none;align=left;verticalAlign=top;spacingLeft=4;spacingRight=4;overflow=hidden;rotatable=0;points=[[0,0.5],[1,0.5]];portConstraint=eastwest;whiteSpace=wrap;html=1;" parent="q4IPxEvm5e1y_BdzbNts-62" vertex="1">
          <mxGeometry y="86" width="275" height="26" as="geometry" />
        </mxCell>
        <mxCell id="q4IPxEvm5e1y_BdzbNts-68" value="&lt;i&gt;&lt;font style=&quot;font-size: 14px;&quot;&gt;+ emitirRelatorio(): void&lt;/font&gt;&lt;/i&gt;" style="text;strokeColor=none;fillColor=none;align=left;verticalAlign=top;spacingLeft=4;spacingRight=4;overflow=hidden;rotatable=0;points=[[0,0.5],[1,0.5]];portConstraint=eastwest;whiteSpace=wrap;html=1;" parent="q4IPxEvm5e1y_BdzbNts-62" vertex="1">
          <mxGeometry y="112" width="275" height="26" as="geometry" />
        </mxCell>
        <mxCell id="q4IPxEvm5e1y_BdzbNts-69" value="&lt;i&gt;&lt;font style=&quot;font-size: 14px;&quot;&gt;&amp;lt;&amp;lt;interface&amp;gt;&amp;gt;&lt;br&gt;&lt;/font&gt;&lt;font style=&quot;font-size: 14px;&quot;&gt;RegraDeQualidade&lt;/font&gt;&lt;/i&gt;" style="swimlane;fontStyle=1;align=center;verticalAlign=top;childLayout=stackLayout;horizontal=1;startSize=50;horizontalStack=0;resizeParent=1;resizeParentMax=0;resizeLast=0;collapsible=1;marginBottom=0;whiteSpace=wrap;html=1;" parent="1" vertex="1">
          <mxGeometry x="1800" y="-189" width="220" height="84" as="geometry" />
        </mxCell>
        <mxCell id="q4IPxEvm5e1y_BdzbNts-71" value="" style="line;strokeWidth=1;fillColor=none;align=left;verticalAlign=middle;spacingTop=-1;spacingLeft=3;spacingRight=3;rotatable=0;labelPosition=right;points=[];portConstraint=eastwest;strokeColor=inherit;" parent="q4IPxEvm5e1y_BdzbNts-69" vertex="1">
          <mxGeometry y="50" width="220" height="8" as="geometry" />
        </mxCell>
        <mxCell id="q4IPxEvm5e1y_BdzbNts-72" value="&lt;i&gt;&lt;font style=&quot;font-size: 14px;&quot;&gt;+ verificarQualidade(dados): void&lt;/font&gt;&lt;/i&gt;" style="text;strokeColor=none;fillColor=none;align=left;verticalAlign=top;spacingLeft=4;spacingRight=4;overflow=hidden;rotatable=0;points=[[0,0.5],[1,0.5]];portConstraint=eastwest;whiteSpace=wrap;html=1;" parent="q4IPxEvm5e1y_BdzbNts-69" vertex="1">
          <mxGeometry y="58" width="220" height="26" as="geometry" />
        </mxCell>
        <mxCell id="q4IPxEvm5e1y_BdzbNts-93" value="" style="endArrow=open;endSize=12;dashed=1;html=1;rounded=0;edgeStyle=orthogonalEdgeStyle;exitX=0.502;exitY=1.071;exitDx=0;exitDy=0;exitPerimeter=0;" parent="1" source="q4IPxEvm5e1y_BdzbNts-46" target="6We_kyT9qWEWSvFF-9-q-4" edge="1">
          <mxGeometry width="160" relative="1" as="geometry">
            <mxPoint x="240" y="220" as="sourcePoint" />
            <mxPoint x="400" y="220" as="targetPoint" />
            <Array as="points">
              <mxPoint x="330" y="-40" />
              <mxPoint x="35" y="-40" />
            </Array>
          </mxGeometry>
        </mxCell>
        <mxCell id="q4IPxEvm5e1y_BdzbNts-94" value="" style="endArrow=open;endSize=12;dashed=1;html=1;rounded=0;edgeStyle=orthogonalEdgeStyle;entryX=0.463;entryY=-0.018;entryDx=0;entryDy=0;entryPerimeter=0;" parent="1" target="6We_kyT9qWEWSvFF-9-q-8" edge="1">
          <mxGeometry width="160" relative="1" as="geometry">
            <mxPoint x="250" y="-40" as="sourcePoint" />
            <mxPoint x="340" y="180" as="targetPoint" />
          </mxGeometry>
        </mxCell>
        <mxCell id="q4IPxEvm5e1y_BdzbNts-95" value="" style="endArrow=open;endSize=12;dashed=1;html=1;rounded=0;edgeStyle=orthogonalEdgeStyle;entryX=0.5;entryY=0;entryDx=0;entryDy=0;" parent="1" target="6We_kyT9qWEWSvFF-9-q-12" edge="1">
          <mxGeometry width="160" relative="1" as="geometry">
            <mxPoint x="330" y="-40" as="sourcePoint" />
            <mxPoint x="520" y="-40" as="targetPoint" />
          </mxGeometry>
        </mxCell>
        <mxCell id="q4IPxEvm5e1y_BdzbNts-96" value="" style="endArrow=open;endSize=12;dashed=1;html=1;rounded=0;edgeStyle=orthogonalEdgeStyle;entryX=0.5;entryY=0;entryDx=0;entryDy=0;" parent="1" target="6We_kyT9qWEWSvFF-9-q-16" edge="1">
          <mxGeometry width="160" relative="1" as="geometry">
            <mxPoint x="460" y="-40" as="sourcePoint" />
            <mxPoint x="620" y="-40" as="targetPoint" />
          </mxGeometry>
        </mxCell>
        <mxCell id="q4IPxEvm5e1y_BdzbNts-98" value="" style="endArrow=diamondThin;endFill=0;endSize=24;html=1;rounded=0;edgeStyle=orthogonalEdgeStyle;exitX=0.5;exitY=0;exitDx=0;exitDy=0;" parent="1" source="q4IPxEvm5e1y_BdzbNts-1" edge="1">
          <mxGeometry width="160" relative="1" as="geometry">
            <mxPoint x="1218" as="sourcePoint" />
            <mxPoint x="1218" y="-40" as="targetPoint" />
            <Array as="points">
              <mxPoint x="1218" y="20" />
            </Array>
          </mxGeometry>
        </mxCell>
        <mxCell id="q4IPxEvm5e1y_BdzbNts-101" value="" style="endArrow=block;dashed=1;endFill=0;endSize=12;html=1;rounded=0;edgeStyle=orthogonalEdgeStyle;entryX=0.396;entryY=1;entryDx=0;entryDy=0;entryPerimeter=0;" parent="1" edge="1">
          <mxGeometry width="160" relative="1" as="geometry">
            <mxPoint x="1209.6" y="310" as="sourcePoint" />
            <mxPoint x="1209.6399999999999" y="210" as="targetPoint" />
            <Array as="points">
              <mxPoint x="1209.6" y="260" />
              <mxPoint x="1209.6" y="260" />
            </Array>
          </mxGeometry>
        </mxCell>
        <mxCell id="q4IPxEvm5e1y_BdzbNts-109" value="" style="endArrow=none;html=1;edgeStyle=orthogonalEdgeStyle;rounded=0;entryX=-0.031;entryY=0.044;entryDx=0;entryDy=0;entryPerimeter=0;" parent="1" target="q4IPxEvm5e1y_BdzbNts-66" edge="1">
          <mxGeometry relative="1" as="geometry">
            <mxPoint x="410" y="-120" as="sourcePoint" />
            <mxPoint x="570" y="-120" as="targetPoint" />
          </mxGeometry>
        </mxCell>
        <mxCell id="q4IPxEvm5e1y_BdzbNts-112" value="" style="endArrow=none;html=1;edgeStyle=orthogonalEdgeStyle;rounded=0;entryX=0;entryY=0.5;entryDx=0;entryDy=0;exitX=1;exitY=0.077;exitDx=0;exitDy=0;exitPerimeter=0;" parent="1" source="q4IPxEvm5e1y_BdzbNts-66" target="q4IPxEvm5e1y_BdzbNts-72" edge="1">
          <mxGeometry relative="1" as="geometry">
            <mxPoint x="1350" y="-120" as="sourcePoint" />
            <mxPoint x="1510" y="-120" as="targetPoint" />
          </mxGeometry>
        </mxCell>
        <mxCell id="q4IPxEvm5e1y_BdzbNts-122" value="" style="endArrow=open;endFill=1;endSize=12;html=1;rounded=0;edgeStyle=orthogonalEdgeStyle;" parent="1" edge="1">
          <mxGeometry width="160" relative="1" as="geometry">
            <mxPoint x="1333" y="730" as="sourcePoint" />
            <mxPoint x="1493" y="730" as="targetPoint" />
          </mxGeometry>
        </mxCell>
        <mxCell id="q4IPxEvm5e1y_BdzbNts-135" value="&lt;font style=&quot;font-size: 18px;&quot;&gt;Padrão Strategy&lt;/font&gt;" style="text;html=1;strokeColor=none;fillColor=none;align=center;verticalAlign=middle;whiteSpace=wrap;rounded=0;" parent="1" vertex="1">
          <mxGeometry x="1430" y="128" width="150" height="30" as="geometry" />
        </mxCell>
        <mxCell id="q4IPxEvm5e1y_BdzbNts-136" value="&lt;font style=&quot;font-size: 24px;&quot;&gt;Arcabouço: Controle de Qualidade&lt;/font&gt;" style="text;html=1;strokeColor=none;fillColor=none;align=center;verticalAlign=middle;whiteSpace=wrap;rounded=0;" parent="1" vertex="1">
          <mxGeometry x="-50" y="-290" width="380" height="30" as="geometry" />
        </mxCell>
        <mxCell id="uKs4XoQYxitK43mANRB1-1" value="" style="endArrow=open;endFill=1;endSize=12;html=1;rounded=0;edgeStyle=orthogonalEdgeStyle;entryX=0.5;entryY=0;entryDx=0;entryDy=0;" edge="1" parent="1" target="q4IPxEvm5e1y_BdzbNts-5">
          <mxGeometry width="160" relative="1" as="geometry">
            <mxPoint x="1235" y="504" as="sourcePoint" />
            <mxPoint x="1410" y="550" as="targetPoint" />
            <Array as="points">
              <mxPoint x="1235" y="504" />
            </Array>
          </mxGeometry>
        </mxCell>
      </root>
    </mxGraphModel>
  </diagram>
</mxfile>
